<?xml version="1.0" encoding="UTF-8"?>
<svg version="1.1" xmlns="http://www.w3.org/2000/svg" width="741" height="741" viewBox="0 0 741 741">
  <g transform="translate(0,127.5)">
<path d="M0 0 C244.53 0 489.06 0 741 0 C741 160.38 741 320.76 741 486 C496.47 486 251.94 486 0 486 C0 325.62 0 165.24 0 0 Z " fill="#FEFEFE" transform="translate(0,0)"/>
<path d="M0 0 C18.48 0 36.96 0 56 0 C56 95.37 56 190.74 56 289 C31.971875 289.061875 7.94375 289.12375 -16.8125 289.1875 C-24.36616455 289.21481201 -31.9198291 289.24212402 -39.70239258 289.27026367 C-49.0111084 289.28381348 -49.0111084 289.28381348 -53.38529968 289.28633118 C-56.40453366 289.28909737 -59.42360526 289.30022283 -62.4427948 289.31672668 C-84.85885412 289.43372032 -105.68763284 288.65589888 -127 281 C-128.49853516 280.46439453 -128.49853516 280.46439453 -130.02734375 279.91796875 C-145.14674091 274.04857315 -158.73519766 265.52799003 -171 255 C-171.98742187 254.1646875 -172.97484375 253.329375 -173.9921875 252.46875 C-180.41735515 246.84450353 -185.83360633 240.78651712 -191 234 C-191.80179688 232.98679687 -192.60359375 231.97359375 -193.4296875 230.9296875 C-203.0201955 218.48171436 -209.63833557 204.10361268 -214.4375 189.1875 C-214.66018555 188.49696533 -214.88287109 187.80643066 -215.11230469 187.0949707 C-219.08678015 173.83498151 -220.44422186 160.96582167 -220.34057617 147.22070312 C-220.3397272 145.61245235 -220.34021029 144.00420042 -220.34190369 142.39595032 C-220.34275454 138.08494645 -220.32527873 133.77419972 -220.30418181 129.46325493 C-220.28526087 124.93763452 -220.28365255 120.4120064 -220.28010559 115.88635254 C-220.27082996 107.34095643 -220.24627774 98.79567727 -220.21605712 90.25033236 C-220.18237247 80.51134817 -220.16599195 70.77235802 -220.15097082 61.03332996 C-220.11972348 41.02214047 -220.0647684 21.01111101 -220 1 C-201.85 1 -183.7 1 -165 1 C-164.970271 7.95670776 -164.970271 7.95670776 -164.93994141 15.05395508 C-164.87299103 30.38886446 -164.79545029 45.72370685 -164.71247292 61.05853748 C-164.66242898 70.35468221 -164.61598534 79.65081849 -164.578125 88.94702148 C-164.54510266 97.05303437 -164.50521541 105.15898001 -164.45720994 113.26491851 C-164.43204643 117.55380958 -164.41023563 121.84265664 -164.39665604 126.13160133 C-164.38374301 130.1756768 -164.36159087 134.21960049 -164.33261681 138.26359177 C-164.32361274 139.7408947 -164.31786775 141.21822202 -164.31578636 142.69555092 C-164.2811784 163.54464185 -159.45506925 182.97208126 -146.1015625 199.44140625 C-145 201 -145 201 -145 203 C-144.34 203 -143.68 203 -143 203 C-141.625 204.46875 -141.625 204.46875 -140 206.5 C-126.70795831 221.97106492 -108.53362 229.093276 -89 233 C-44.945 233.495 -44.945 233.495 0 234 C0 156.78 0 79.56 0 0 Z " fill="#020202" transform="translate(427,34)"/>
<path d="M0 0 C0 18.15 0 36.3 0 55 C-5.94 55.66 -11.88 56.32 -18 57 C-41.99950745 63.71986209 -60.69047049 77.24067834 -72.984375 99.046875 C-79.35046547 111.02940417 -81.12594953 123.32897558 -81.20532227 136.73046875 C-81.21522186 137.77526901 -81.22512146 138.82006927 -81.23532104 139.89653015 C-81.26673881 143.32683091 -81.29161501 146.75714549 -81.31640625 150.1875 C-81.33699283 152.57503607 -81.35798974 154.96256864 -81.37937927 157.35009766 C-81.43442396 163.61685334 -81.48391052 169.88364096 -81.53222656 176.15045166 C-81.59143074 183.67881238 -81.65756138 191.20711507 -81.72252655 198.73542786 C-81.82031441 210.1569163 -81.9093221 221.57844293 -82 233 C-54.61 233 -27.22 233 1 233 C1 251.15 1 269.3 1 288 C-26.39 288 -53.78 288 -82 288 C-82 331.89 -82 375.78 -82 421 C-100.48 421 -118.96 421 -138 421 C-138.06621972 383.70810905 -138.12158009 346.41627385 -138.15319599 309.12434087 C-138.15694781 304.71497389 -138.1608308 300.30560703 -138.16479492 295.89624023 C-138.16558185 295.01846815 -138.16636878 294.14069607 -138.16717956 293.23632484 C-138.1802096 279.05053113 -138.20385011 264.86477415 -138.23145839 250.67900217 C-138.2595796 236.10741247 -138.27619042 221.53584191 -138.28226548 206.96422619 C-138.28636804 197.98324715 -138.29929386 189.00237194 -138.3237494 180.02142488 C-138.33968964 173.85075023 -138.34438175 167.68012872 -138.34050413 161.50943501 C-138.33859538 157.95696546 -138.34138088 154.40467649 -138.35761642 150.85223961 C-138.41959171 136.58931898 -138.31534265 122.93173845 -135 109 C-134.7800043 108.04488809 -134.5600086 107.08977617 -134.33334637 106.10572147 C-133.81820101 103.94636015 -133.2435768 101.8192937 -132.625 99.6875 C-132.30366089 98.56444458 -132.30366089 98.56444458 -131.97583008 97.41870117 C-127.22439698 81.25200657 -119.42794091 66.22184206 -109 53 C-108.25492188 52.05125 -107.50984375 51.1025 -106.7421875 50.125 C-86.95900912 25.44632324 -59.72064572 9.01883869 -29 2 C-28.09378906 1.77441406 -27.18757813 1.54882812 -26.25390625 1.31640625 C-17.28111392 -0.66389038 -9.64621199 0 0 0 Z " fill="#020202" transform="translate(188,35)"/>
<path d="M0 0 C1.83514785 0.00748653 3.67030385 0.013168 5.50546265 0.01715088 C10.26972641 0.03221784 15.03348023 0.07132912 19.79754639 0.1159668 C25.5488939 0.16464474 31.30041464 0.18254399 37.0519104 0.20578003 C45.73027101 0.24419744 54.40751908 0.32098098 63.0859375 0.390625 C63.0859375 18.540625 63.0859375 36.690625 63.0859375 55.390625 C57.7853125 55.41640625 52.4846875 55.4421875 47.0234375 55.46875 C43.63276652 55.49396456 40.24218072 55.52033273 36.8515625 55.55078125 C31.48893092 55.59883139 26.12649689 55.64298131 20.76367188 55.66162109 C16.43213063 55.67694663 12.10111206 55.71166619 7.76980591 55.75893402 C6.13075344 55.77358613 4.49162628 55.78165653 2.85250854 55.78250885 C-11.18330983 55.79712516 -24.80867574 57.40192591 -37.3515625 64.265625 C-38.01494629 64.61439697 -38.67833008 64.96316895 -39.36181641 65.32250977 C-61.86097977 77.33253341 -77.81751077 96.27761297 -85.62109375 120.59375 C-88.29236468 130.35638043 -88.07870156 140.42601195 -88.11938477 150.45727539 C-88.12897966 151.96597553 -88.13899065 153.47467307 -88.14938354 154.98336792 C-88.17626424 159.05500243 -88.19736421 163.12664834 -88.21738553 167.19832158 C-88.23934977 171.46243026 -88.26668708 175.7265045 -88.29344177 179.99058533 C-88.34322824 188.05448245 -88.3882188 196.11839884 -88.43146414 204.18233341 C-88.48095705 213.36739616 -88.53583023 222.55242433 -88.59114373 231.73745358 C-88.70474798 250.6218133 -88.81092331 269.50620502 -88.9140625 288.390625 C-107.0640625 288.390625 -125.2140625 288.390625 -143.9140625 288.390625 C-143.98201735 268.11812415 -144.03718197 247.8457168 -144.06949902 227.57313061 C-144.08490917 218.15833113 -144.1058855 208.74360792 -144.14038086 199.32885742 C-144.17046377 191.11440881 -144.18967991 182.90001549 -144.19632798 174.68551332 C-144.20020855 170.34375646 -144.2092033 166.00215764 -144.23125267 161.66045189 C-144.40096691 126.89577878 -144.40096691 126.89577878 -140.9140625 111.390625 C-140.67701599 110.3185228 -140.43996948 109.24642059 -140.19573975 108.14183044 C-139.61635369 105.65294216 -138.95371241 103.21505235 -138.2265625 100.765625 C-137.97165039 99.8979248 -137.71673828 99.03022461 -137.45410156 98.13623047 C-131.70364064 79.36994131 -121.52777215 63.30494835 -108.9140625 48.390625 C-108.33011719 47.68421875 -107.74617187 46.9778125 -107.14453125 46.25 C-90.50053015 26.56273911 -64.87117799 11.10232506 -39.90177536 4.89000702 C-38.58835868 4.56003145 -37.27687439 4.22225546 -35.96757889 3.87628937 C-23.83759908 0.68718473 -12.50439833 -0.15298652 0 0 Z " fill="#010101" transform="translate(644.9140625,34.609375)"/>
<path d="M0 0 C5.28 0 10.56 0 16 0 C16 9.57 16 19.14 16 29 C21.61 29 27.22 29 33 29 C33 33.95 33 38.9 33 44 C27.72 44 22.44 44 17 44 C21.81594555 68.83781189 21.81594555 68.83781189 35 90 C34.61328125 90.43570313 34.2265625 90.87140625 33.828125 91.3203125 C30.56015499 95.05744652 27.65859411 98.8076016 25 103 C21.08366738 101.69455579 19.7737082 99.28214019 17.5625 96 C17.16361572 95.41710205 16.76473145 94.8342041 16.35375977 94.23364258 C13.30758604 89.68469815 10.99235819 85.11083188 9 80 C6.6467876 82.3532124 5.75842074 84.53675016 4.375 87.5625 C1.42030144 93.62548294 -2.26358091 98.23953817 -7 103 C-9.64 101.02 -12.28 99.04 -15 97 C-15 98.98 -15 100.96 -15 103 C-30.84 103 -46.68 103 -63 103 C-63 93.76 -63 84.52 -63 75 C-64.98 74.67 -66.96 74.34 -69 74 C-69 70.04 -69 66.08 -69 62 C-67.02 61.505 -67.02 61.505 -65 61 C-65 49.78 -65 38.56 -65 27 C-47.84 27 -30.68 27 -13 27 C-12.505 27.99 -12.505 27.99 -12 29 C-8.04 29 -4.08 29 0 29 C0 19.43 0 9.86 0 0 Z " fill="#040404" transform="translate(675,144)"/>
<path d="M0 0 C9.16300732 -0.11651719 18.32575457 -0.20502788 27.4893446 -0.25906086 C31.74568785 -0.28501114 36.00151946 -0.3201374 40.25756836 -0.37719727 C44.3749262 -0.4320441 48.49179602 -0.46152968 52.60949135 -0.47438622 C54.17020652 -0.48353273 55.73089892 -0.5013903 57.29140282 -0.52865028 C71.48432902 -0.766428 83.37965044 2.00311226 94 12 C102.22565554 20.13343967 105.98912954 29.71679764 106.22705078 41.24438477 C106.22673906 43.14342137 106.21573653 45.04247945 106.1953125 46.94140625 C106.1924826 47.94968979 106.18965271 48.95797333 106.18673706 49.99681091 C106.17563177 53.18549983 106.15054545 56.37389741 106.125 59.5625 C106.11495772 61.73762612 106.10583406 63.91275669 106.09765625 66.08789062 C106.07572416 71.3920248 106.04234411 76.69599157 106 82 C103.35409986 82.02684679 100.70846904 82.04676357 98.0625 82.0625 C97.30775391 82.07087891 96.55300781 82.07925781 95.77539062 82.08789062 C93.85005687 82.09652441 91.92464419 82.05224333 90 82 C88.43095978 80.43095978 88.86753234 78.87835842 88.8581543 76.69897461 C88.84760262 75.32635719 88.84760262 75.32635719 88.83683777 73.92601013 C88.83267349 72.92820023 88.82850922 71.93039032 88.82421875 70.90234375 C88.80100526 68.80012036 88.77688732 66.69790681 88.75195312 64.59570312 C88.71693568 61.27345358 88.68755707 57.95156139 88.67407227 54.62915039 C88.65852739 51.42810255 88.61825616 48.22811033 88.57421875 45.02734375 C88.57612717 44.04370346 88.57803558 43.06006317 88.58000183 42.0466156 C88.44407311 34.32208754 86.59041479 29.15050447 81.6875 23.1875 C74.95785849 17.70988482 69.99210219 17.81746384 61 17 C61 38.45 61 59.9 61 82 C55.72 82 50.44 82 45 82 C44 81 44 81 43.87974548 78.45005798 C43.88196609 77.31532547 43.88418671 76.18059296 43.88647461 75.01147461 C43.88655014 73.73022202 43.88662567 72.44896942 43.88670349 71.12889099 C43.89181091 69.72004152 43.89702691 68.31119244 43.90234375 66.90234375 C43.90420798 65.46887766 43.90563186 64.03541093 43.90663147 62.60194397 C43.91045628 58.82240043 43.92028623 55.0428951 43.93133545 51.2633667 C43.94155037 47.40930702 43.94612926 43.55524118 43.95117188 39.70117188 C43.96190855 32.13409512 43.97950503 24.56705777 44 17 C35.09 17 26.18 17 17 17 C17 38.45 17 59.9 17 82 C11.72 82 6.44 82 1 82 C-0.73141493 80.26858507 -0.11977579 78.04249956 -0.12442017 75.73521423 C-0.12082489 74.98139969 -0.11722961 74.22758514 -0.11352539 73.45092773 C-0.11367142 72.66074249 -0.11381744 71.87055725 -0.1139679 71.056427 C-0.11326857 68.43212178 -0.10547527 65.80788664 -0.09765625 63.18359375 C-0.09579214 61.36898335 -0.0943682 59.55437244 -0.09336853 57.73976135 C-0.08954279 52.9540977 -0.07971204 48.1684642 -0.06866455 43.3828125 C-0.05845163 38.50325936 -0.05387117 33.62370136 -0.04882812 28.74414062 C-0.03808982 19.16274714 -0.02101273 9.58137607 0 0 Z " fill="#0B0B0B" transform="translate(277,374)"/>
<path d="M0 0 C15.18 0 30.36 0 46 0 C46 21.25407925 46 21.25407925 40.32421875 27.98828125 C34.29772896 32.8641286 30.0289659 35 22 35 C22 30.71 22 26.42 22 22 C23.72526042 21.38151042 25.45052083 20.76302083 27.17578125 20.14453125 C29.63854934 18.79128225 29.63854934 18.79128225 32 14 C26.06 14 20.12 14 14 14 C14 21.92 14 29.84 14 38 C24.89 38 35.78 38 47 38 C47 49.46495765 45.38508415 59.49648268 39.890625 69.6328125 C38.7431237 72.68275017 38.81152261 73.9606922 40 77 C41.82025455 78.94520182 43.54300363 80.61067721 45.5625 82.3125 C46.34270508 82.9940918 46.34270508 82.9940918 47.13867188 83.68945312 C48.41677066 84.80339243 49.70720655 85.90314888 51 87 C50.09373216 88.2989839 49.17450463 89.58893167 48.25 90.875 C47.48429688 91.95394531 47.48429688 91.95394531 46.703125 93.0546875 C44.92496453 95.08570565 43.47298393 95.97855012 41 97 C40.06027344 96.25943359 40.06027344 96.25943359 39.1015625 95.50390625 C38.28429687 94.86324219 37.46703125 94.22257812 36.625 93.5625 C35.81289063 92.92441406 35.00078125 92.28632813 34.1640625 91.62890625 C32.10601894 89.97776453 32.10601894 89.97776453 30 89 C29.54109375 89.56589844 29.0821875 90.13179688 28.609375 90.71484375 C27.99578125 91.44832031 27.3821875 92.18179688 26.75 92.9375 C26.14671875 93.66839844 25.5434375 94.39929688 24.921875 95.15234375 C22.89258866 97.10326334 21.745593 97.61731779 19 98 C17.68 96.35 16.36 94.7 15 93 C14.67 94.65 14.34 96.3 14 98 C9.38 98 4.76 98 0 98 C0 65.66 0 33.32 0 0 Z " fill="#020202" transform="translate(658,365)"/>
<path d="M0 0 C3.19678764 2.19196181 6.08069666 4.40717263 8.9453125 7.01953125 C8.9453125 7.67953125 8.9453125 8.33953125 8.9453125 9.01953125 C9.6053125 9.01953125 10.2653125 9.01953125 10.9453125 9.01953125 C12.09675075 11.09993665 13.24155362 13.18355122 14.3828125 15.26953125 C14.70830078 15.85605469 15.03378906 16.44257813 15.36914062 17.046875 C20.37523614 26.23331831 18.9453125 30.96033257 18.9453125 43.01953125 C5.4153125 43.01953125 -8.1146875 43.01953125 -22.0546875 43.01953125 C-22.0546875 37.73953125 -22.0546875 32.45953125 -22.0546875 27.01953125 C-14.4646875 26.68953125 -6.8746875 26.35953125 0.9453125 26.01953125 C-4.40431177 17.2641923 -4.40431177 17.2641923 -12.87890625 12.41015625 C-20.07864895 11.11756331 -27.91897077 10.84583604 -34.33984375 14.6875 C-39.46455928 18.66820159 -42.35072377 22.73035602 -44.0546875 29.01953125 C-44.86717038 36.63419636 -44.91065213 43.7862901 -40.0546875 50.01953125 C-35.95744381 54.35950264 -31.72723533 57.59754284 -25.63114929 58.29800415 C-24.78953751 58.31132782 -23.94792572 58.32465149 -23.08081055 58.33837891 C-22.12019211 58.3582486 -21.15957367 58.37811829 -20.16984558 58.39859009 C-19.1457106 58.4101413 -18.12157562 58.4216925 -17.06640625 58.43359375 C-16.00807083 58.4529599 -14.94973541 58.47232605 -13.85932922 58.49227905 C-10.48703002 58.55194373 -7.11469644 58.59840818 -3.7421875 58.64453125 C-1.45245927 58.68272306 0.83725478 58.72177549 3.12695312 58.76171875 C8.73295741 58.85763469 14.33902895 58.94171453 19.9453125 59.01953125 C19.9453125 64.62953125 19.9453125 70.23953125 19.9453125 76.01953125 C13.75637379 76.09430467 7.56770448 76.14842544 1.37841797 76.18432617 C-0.72221464 76.19930998 -2.82281651 76.21970406 -4.92333984 76.24584961 C-22.0817834 76.45390492 -36.74627698 76.32322477 -50.12109375 64.13671875 C-58.72690527 54.95470819 -62.70950584 43.46736209 -62.4296875 30.98046875 C-60.94166089 19.23125865 -54.6783167 9.66168577 -45.7421875 2.20703125 C-31.91500372 -7.70245046 -14.76885696 -8.32789354 0 0 Z " fill="#050505" transform="translate(450.0546875,379.98046875)"/>
<path d="M0 0 C4.95 0 9.9 0 15 0 C15 3.63 15 7.26 15 11 C22.59 11 30.18 11 38 11 C38 15.29 38 19.58 38 24 C30.41 24 22.82 24 15 24 C15 26.64 15 29.28 15 32 C21.93 32 28.86 32 36 32 C36 36.62 36 41.24 36 46 C33.69 46 31.38 46 29 46 C29 47.98 29 49.96 29 52 C31.97 52 34.94 52 38 52 C38 56.62 38 61.24 38 66 C34.7 66 31.4 66 28 66 C28.04640625 67.19496094 28.0928125 68.38992188 28.140625 69.62109375 C28.64747428 87.88878642 28.64747428 87.88878642 22.19921875 94.98046875 C16.05954772 100.76248904 10.37597075 103.36640219 1.98632812 103.26367188 C1.18646484 103.23853516 0.38660156 103.21339844 -0.4375 103.1875 C-1.67790039 103.16719727 -1.67790039 103.16719727 -2.94335938 103.14648438 C-4.9625264 103.11146992 -6.98135318 103.05767562 -9 103 C-9 97.72 -9 92.44 -9 87 C-5.51692708 86.83723958 -2.03385417 86.67447917 1.44921875 86.51171875 C5.12120728 85.98253228 7.06811511 85.22400638 10 83 C13.2547839 78.65300102 13.2547839 78.65300102 13 66 C1.12 66 -10.76 66 -23 66 C-23 61.38 -23 56.76 -23 52 C-11.12 52 0.76 52 13 52 C13 50.02 13 48.04 13 46 C1.78 46 -9.44 46 -21 46 C-21 41.38 -21 36.76 -21 32 C-14.07 32 -7.14 32 0 32 C0 29.36 0 26.72 0 24 C-7.59 24 -15.18 24 -23 24 C-23 19.71 -23 15.42 -23 11 C-15.41 11 -7.82 11 0 11 C0 7.37 0 3.74 0 0 Z " fill="#040404" transform="translate(670,253)"/>
<path d="M0 0 C1.19044922 0.01353516 2.38089844 0.02707031 3.60742188 0.04101562 C6.50960738 0.07598172 9.41079809 0.12505304 12.3125 0.1875 C12.33934679 2.83340014 12.35926357 5.47903096 12.375 8.125 C12.38337891 8.87974609 12.39175781 9.63449219 12.40039062 10.41210938 C12.40902441 12.33744313 12.36474333 14.26285581 12.3125 16.1875 C10.54583152 17.95416848 7.98398175 17.33834044 5.58984375 17.36328125 C4.41099609 17.38712891 3.23214844 17.41097656 2.01757812 17.43554688 C-0.46662992 17.47804499 -2.95105384 17.50954733 -5.43554688 17.52929688 C-13.56417187 17.71895009 -19.84552189 18.32365104 -25.74609375 24.2578125 C-26.20113281 24.93585938 -26.65617187 25.61390625 -27.125 26.3125 C-27.59808594 26.99570312 -28.07117188 27.67890625 -28.55859375 28.3828125 C-29.7264786 30.18612689 -29.7264786 30.18612689 -30.6875 32.1875 C-9.8975 32.5175 10.8925 32.8475 32.3125 33.1875 C32.3125 49.27435381 30.97124159 59.70322545 19.6015625 71.16796875 C9.1511989 80.38782879 -1.10608078 81.63725375 -14.75 81.375 C-16.10610486 81.35991956 -17.46222602 81.34623712 -18.81835938 81.33398438 C-22.10824778 81.29886101 -25.39792769 81.24506219 -28.6875 81.1875 C-28.6875 75.9075 -28.6875 70.6275 -28.6875 65.1875 C-26.01140625 65.13142578 -26.01140625 65.13142578 -23.28125 65.07421875 C-20.91664648 65.00853532 -18.55206407 64.94208881 -16.1875 64.875 C-15.01445312 64.85244141 -13.84140625 64.82988281 -12.6328125 64.80664062 C-5.09684939 64.57378783 1.56626289 64.36592766 7.5546875 59.28515625 C8.09351563 58.61355469 8.63234375 57.94195312 9.1875 57.25 C9.74179687 56.58097656 10.29609375 55.91195312 10.8671875 55.22265625 C12.55802031 52.95190376 12.55802031 52.95190376 14.3125 49.1875 C-6.4775 49.1875 -27.2675 49.1875 -48.6875 49.1875 C-48.6875 33.91945298 -47.69253298 23.54949089 -37.6875 12.1875 C-35.16508036 9.91924051 -32.53809676 8.01871848 -29.6875 6.1875 C-28.924375 5.630625 -28.16125 5.07375 -27.375 4.5 C-18.53826568 0.18438557 -9.67504798 -0.21186236 0 0 Z " fill="#040404" transform="translate(524.6875,373.8125)"/>
<path d="M0 0 C4.62 0 9.24 0 14 0 C14 2.64 14 5.28 14 8 C18.62 8 23.24 8 28 8 C28 12.29 28 16.58 28 21 C23.38 21 18.76 21 14 21 C14 22.65 14 24.3 14 26 C19.61 26 25.22 26 31 26 C31 30.29 31 34.58 31 39 C28.36 39 25.72 39 23 39 C23 42.63 23 46.26 23 50 C24.65 50 26.3 50 28 50 C28 54.29 28 58.58 28 63 C23.38 63 18.76 63 14 63 C14 65.31 14 67.62 14 70 C19.61 70 25.22 70 31 70 C31 74.29 31 78.58 31 83 C25.39 83 19.78 83 14 83 C14 88.94 14 94.88 14 101 C9.38 101 4.76 101 0 101 C0 95.06 0 89.12 0 83 C-5.94 83 -11.88 83 -18 83 C-18 78.71 -18 74.42 -18 70 C-12.06 70 -6.12 70 0 70 C0 67.69 0 65.38 0 63 C-4.95 63 -9.9 63 -15 63 C-15 58.71 -15 54.42 -15 50 C-13.02 50 -11.04 50 -9 50 C-9 46.37 -9 42.74 -9 39 C-11.97 39 -14.94 39 -18 39 C-18 34.71 -18 30.42 -18 26 C-12.39 26 -6.78 26 -1 26 C-1 24.35 -1 22.7 -1 21 C-5.62 21 -10.24 21 -15 21 C-15 16.71 -15 12.42 -15 8 C-10.05 8 -5.1 8 0 8 C0 5.36 0 2.72 0 0 Z " fill="#030303" transform="translate(625,362)"/>
<path d="M0 0 C11.88 0 23.76 0 36 0 C36 24.75 36 49.5 36 75 C24.12 75 12.24 75 0 75 C0 50.25 0 25.5 0 0 Z " fill="#040404" transform="translate(609,264)"/>
<path d="M0 0 C5.61 0 11.22 0 17 0 C17 13.2 17 26.4 17 40 C24.92 40 32.84 40 41 40 C41 45.61 41 51.22 41 57 C33.08 57 25.16 57 17 57 C17.0743431 61.14526896 17.15746419 65.28851233 17.26245117 69.43286133 C17.29551994 70.8399778 17.32360704 72.24722116 17.34643555 73.65454102 C17.38031799 75.68820824 17.43264218 77.72073135 17.48828125 79.75390625 C17.51446533 80.97408447 17.54064941 82.1942627 17.56762695 83.45141602 C18.43151322 90.54152718 21.7200135 96.22699112 27 101 C31.92804079 103.68802225 35.25389618 104.17912803 41 105 C41 110.61 41 116.22 41 122 C26.82440832 120.22805104 16.67838097 116.39761774 7.5625 104.8125 C-1.04673247 93.30253262 -0.5488371 79.54038405 -0.390625 65.91796875 C-0.38314826 64.00841367 -0.37746212 62.09885083 -0.37347412 60.18928528 C-0.3583305 55.20631057 -0.31914827 50.22381538 -0.2746582 45.24102783 C-0.23345987 40.1392668 -0.21541107 35.03742694 -0.1953125 29.93554688 C-0.152641 19.95678857 -0.08238584 9.97850951 0 0 Z " fill="#090909" transform="translate(207,334)"/>
<path d="M0 0 C16.83 0 33.66 0 51 0 C51 10.56 51 21.12 51 32 C34.17 32 17.34 32 0 32 C0 21.44 0 10.88 0 0 Z " fill="#050505" transform="translate(610,172)"/>
<path d="M0 0 C5.28 0 10.56 0 16 0 C16 26.73 16 53.46 16 81 C10.72 81 5.44 81 0 81 C0 54.27 0 27.54 0 0 Z " fill="#030303" transform="translate(255,375)"/>
<path d="M0 0 C17.16 0 34.32 0 52 0 C52 5.61 52 11.22 52 17 C56.29 17 60.58 17 65 17 C65.79530823 32.37595919 60.93659884 49.07608139 51 61 C50.67 61 50.34 61 50 61 C50 57.04 50 53.08 50 49 C34.16 49 18.32 49 2 49 C2 48.67 2 48.34 2 48 C0.02 47.67 -1.96 47.34 -4 47 C-4 43.04 -4 39.08 -4 35 C-0.16305047 33.08152523 1.07650751 32.752854 5.13574219 32.77294922 C6.66687653 32.77317581 6.66687653 32.77317581 8.22894287 32.77340698 C9.32386047 32.78372955 10.41877808 32.79405212 11.546875 32.8046875 C13.23638275 32.80893234 13.23638275 32.80893234 14.96002197 32.81326294 C18.55678946 32.82445626 22.15330779 32.84955963 25.75 32.875 C28.18879849 32.88503088 30.62760088 32.89415654 33.06640625 32.90234375 C39.04444402 32.92269105 45.02194315 32.96184219 51 33 C51 22.44 51 11.88 51 1 C34.17 1 17.34 1 0 1 C0 0.67 0 0.34 0 0 Z " fill="#CCCCCC" transform="translate(610,171)"/>
<path d="M0 0 C19.8 0 39.6 0 60 0 C60 3.3 60 6.6 60 10 C40.2 10 20.4 10 0 10 C0 6.7 0 3.4 0 0 Z " fill="#000000" transform="translate(606,207)"/>
<path d="M0 0 C8.25 0 16.5 0 25 0 C25 7.26 25 14.52 25 22 C16.75 22 8.5 22 0 22 C0 14.74 0 7.48 0 0 Z " fill="#080808" transform="translate(609,146)"/>
<path d="M0 0 C8.25 0 16.5 0 25 0 C25 6.93 25 13.86 25 21 C16.75 21 8.5 21 0 21 C0 14.07 0 7.14 0 0 Z " fill="#000000" transform="translate(637,147)"/>
<path d="M0 0 C0.33 0 0.66 0 1 0 C1 32.01 1 64.02 1 97 C5.62 97 10.24 97 15 97 C15 97.33 15 97.66 15 98 C10.05 98 5.1 98 0 98 C-0.495 82.655 -0.495 82.655 -1 67 C-6.61 66.67 -12.22 66.34 -18 66 C-18 63.69 -18 61.38 -18 59 C-13.38 59 -8.76 59 -4 59 C-4 54.71 -4 50.42 -4 46 C-5.65 46 -7.3 46 -9 46 C-9 42.37 -9 38.74 -9 35 C-6.36 34.67 -3.72 34.34 -1 34 C-0.67 22.78 -0.34 11.56 0 0 Z " fill="#E6E6E6" transform="translate(657,366)"/>
<path d="M0 0 C8.91 0 17.82 0 27 0 C27 7.14285714 27 7.14285714 24 11 C20.99600111 12.87122411 18.7448743 13.2403189 15.234375 13.1953125 C14.34492187 13.18886719 13.45546875 13.18242187 12.5390625 13.17578125 C11.61867188 13.15902344 10.69828125 13.14226562 9.75 13.125 C8.81414063 13.11597656 7.87828125 13.10695313 6.9140625 13.09765625 C4.60926511 13.07413791 2.30459967 13.03826826 0 13 C0 8.71 0 4.42 0 0 Z " fill="#070707" transform="translate(652,323)"/>
<path d="M0 0 C4.62 0 9.24 0 14 0 C14 7.59 14 15.18 14 23 C9.38 23 4.76 23 0 23 C0 15.41 0 7.82 0 0 Z " fill="#080808" transform="translate(693,148)"/>
<path d="M0 0 C5.28 0 10.56 0 16 0 C16 4.95 16 9.9 16 15 C10.72 15 5.44 15 0 15 C0 10.05 0 5.1 0 0 Z " fill="#020202" transform="translate(255,335)"/>
<path d="M0 0 C6.6 0 13.2 0 20 0 C20 2.31 20 4.62 20 7 C13.4 7 6.8 7 0 7 C0 4.69 0 2.38 0 0 Z " fill="#EFEFEF" transform="translate(626,230)"/>
<path d="M0 0 C1.98 0 3.96 0 6 0 C6 5.61 6 11.22 6 17 C4.02 17 2.04 17 0 17 C0 11.39 0 5.78 0 0 Z " fill="#FFFFFF" transform="translate(624,308)"/>
<path d="M0 0 C1.98 0 3.96 0 6 0 C6 5.28 6 10.56 6 16 C4.02 16 2.04 16 0 16 C0 10.72 0 5.44 0 0 Z " fill="#FDFDFD" transform="translate(624,278)"/>
<path d="M0 0 C2.64 0 5.28 0 8 0 C8 3.63 8 7.26 8 11 C5.36 11 2.72 11 0 11 C0 7.37 0 3.74 0 0 Z " fill="#F1F1F1" transform="translate(628,401)"/>
<path d="M0 0 C6.96774194 8.70967742 6.96774194 8.70967742 7.0625 12.5 C6 15 6 15 0 20 C0 13.4 0 6.8 0 0 Z " fill="#F7F7F7" transform="translate(672,429)"/>
<path d="M0 0 C2.97 0 5.94 0 9 0 C7.125 8.75 7.125 8.75 6 11 C5.34 11 4.68 11 4 11 C3.32880451 9.5437455 2.66318193 8.08492133 2 6.625 C1.62875 5.81289063 1.2575 5.00078125 0.875 4.1640625 C0 2 0 2 0 0 Z " fill="#EBEBEB" transform="translate(682,415)"/>
<path d="M0 0 C1.98 0 3.96 0 6 0 C6 1.32 6 2.64 6 4 C4.02 4 2.04 4 0 4 C0 2.68 0 1.36 0 0 Z " fill="#B5B5B5" transform="translate(623,180)"/>
<path d="M0 0 C1.98 0 3.96 0 6 0 C6 1.32 6 2.64 6 4 C4.02 4 2.04 4 0 4 C0 2.68 0 1.36 0 0 Z " fill="#C0C0C0" transform="translate(641,180)"/>
<path d="M0 0 C1.32 0 2.64 0 4 0 C4 1.65 4 3.3 4 5 C2.68 5 1.36 5 0 5 C0 3.35 0 1.7 0 0 Z " fill="#E7E7E7" transform="translate(647,155)"/>
<path d="M0 0 C1.32 0 2.64 0 4 0 C4 1.65 4 3.3 4 5 C2.68 5 1.36 5 0 5 C0 3.35 0 1.7 0 0 Z " fill="#D2D2D2" transform="translate(619,155)"/>
</g>
</svg>
